<svg xmlns="http://www.w3.org/2000/svg" width="186.449" height="146" viewBox="0 0 186.449 146">
    <defs>
        <style>
            .cls-11{fill:#fff}.cls-2{fill:#dcdee2}.cls-4{fill:#febead}.cls-6{fill:#515151}.cls-7{fill:#21bf54}.cls-8{fill:#e5e5e5}.cls-9{fill:#f26b6b}.cls-12{fill:#29855f}.cls-13{fill:#797e84}.cls-19{fill:#ffc304}.cls-21{fill:#087ef7}.cls-22{fill:#2384cc}.cls-23{fill:#ff9c8a}.cls-25{fill:#dd4a36}.cls-26{fill:#d6991e}.cls-28{fill:#ef9d8b}.cls-29{fill:#d34e40}
        </style>
    </defs>
    <g id="main_img_average" transform="translate(-1349 -1518)">
        <g id="그룹_6493" transform="translate(12089.46 -4871.23)">
            <g id="그룹_3562" transform="translate(-10739.46 6487.085)">
                <g id="그룹_3556" transform="translate(12.689 1.746)">
                    <g id="그룹_3550" transform="translate(71.408)">
                        <g id="그룹_3549">
                            <g id="그룹_3548">
                                <g id="그룹_3547">
                                    <g id="그룹_3546">
                                        <path id="패스_1685" d="M616.071 369.47h1.009l1.286-37.018h-3.581z" class="cls-2" transform="translate(-614.785 -332.452)"/>
                                    </g>
                                </g>
                            </g>
                        </g>
                    </g>
                    <g id="그룹_3555">
                        <g id="그룹_3554">
                            <g id="그룹_3553">
                                <g id="그룹_3552">
                                    <g id="그룹_3551">
                                        <path id="패스_1686" d="M350.482 369.47h1.009l1.286-37.018H349.2z" class="cls-2" transform="translate(-349.196 -332.452)"/>
                                    </g>
                                </g>
                            </g>
                        </g>
                    </g>
                </g>
                <g id="그룹_3561" transform="translate(0 0)">
                    <g id="그룹_3560">
                        <g id="그룹_3559">
                            <g id="그룹_3558">
                                <g id="그룹_3557">
                                    <path id="패스_1687" fill="#c6c9cf" d="M312.135 330.766h97.6l1.383-3.606H310.752z" transform="translate(-310.752 -327.161)"/>
                                </g>
                            </g>
                        </g>
                    </g>
                </g>
            </g>
            <g id="그룹_6492" transform="translate(-10726.534 6445.452)">
                <g id="그룹_3666" transform="translate(0 0)">
                    <g id="그룹_3641" transform="translate(13.411 21.291)">
                        <path id="패스_1755" d="M493.684 265.527s2.84 6.725 7.323 6.576 8.568-3.961 8.568-3.961l.4.971s-6.09 6.935-10.162 6.426c-5.978-.747-8.519-8.22-8.519-8.22z" class="cls-4" transform="translate(-491.293 -265.527)"/>
                    </g>
                    <g id="그룹_3642" transform="translate(11.062 14.243)">
                        <path id="패스_1756" fill="#343435" d="M484.807 244.255c-1.908.968 1.12 9.358 1.12 9.358l3.687-2.292s-2.898-8.034-4.807-7.066z" transform="translate(-484.176 -244.174)"/>
                    </g>
                    <g id="그룹_3643" transform="translate(31.656 21.216)">
                        <path id="패스_1757" d="M548.1 265.3c.174.05-.249 1.171-.249 1.171s.3 0 .274.8-.224.946-.548 1.121a1.877 1.877 0 0 0-.573.573l-.434-.965s.137-.037.312-.461.174-.6.374-.747a9.81 9.81 0 0 0 .844-1.492z" class="cls-4" transform="translate(-546.57 -265.301)"/>
                    </g>
                    <g id="그룹_3644" transform="translate(18.271 60.556)">
                        <path id="패스_1758" d="M506.018 385.958l.486-1.47 1.693.443-.851 1.815z" class="cls-4" transform="translate(-506.018 -384.488)"/>
                    </g>
                    <g id="그룹_3645" transform="translate(17.084 61.415)">
                        <path id="패스_1759" d="M509.262 391.254a15.436 15.436 0 0 1-2.864-2.523 1.786 1.786 0 0 0-1.117-.9s-.109.434-.834.218a.948.948 0 0 1-.672-.958l-1.039 1.79-.315.543 6.82 3.352a1.566 1.566 0 0 0 .324-.538.851.851 0 0 0-.303-.984z" class="cls-6" transform="translate(-502.421 -387.093)"/>
                    </g>
                    <g id="그룹_3648" transform="translate(8.451 70.714)">
                        <g id="그룹_3646" transform="translate(1.187)">
                            <path id="패스_1760" d="M479.861 416.735l.486-1.47 1.693.443-.851 1.815z" class="cls-4" transform="translate(-479.861 -415.265)"/>
                        </g>
                        <g id="그룹_3647" transform="translate(0 0.86)">
                            <path id="패스_1761" d="M483.105 422.031a15.452 15.452 0 0 1-2.864-2.523 1.787 1.787 0 0 0-1.117-.9s-.11.434-.834.217a.947.947 0 0 1-.672-.958l-1.039 1.79-.315.543 6.82 3.352a1.571 1.571 0 0 0 .324-.538.851.851 0 0 0-.303-.983z" class="cls-6" transform="translate(-476.264 -417.87)"/>
                        </g>
                    </g>
                    <g id="그룹_3649" transform="translate(2.364 32.3)">
                        <path id="패스_1762" d="M460.4 298.883a11.9 11.9 0 0 1-1.495 3.885c-1.046 1.495-2.242 4.782 1.2 10.312s5.978 5.38 5.978 11.059c0 5.013-.842 13.679-.842 13.679l1.644.747s4.428-9.345 4.279-16.668a35.319 35.319 0 0 0-2.989-13.2s8.817.2 9.565 1.993-3.74 16.887-3.74 16.887l1.794.448s10.8-17.694 7.024-22.866c-2.292-3.139-8.621-2.85-11.258-4.334-2.391-1.345-2.491-1.943-2.491-1.943z" class="cls-7" transform="translate(-457.824 -298.883)"/>
                    </g>
                    <g id="그룹_3650" transform="translate(4.942 12.857)">
                        <path id="패스_1763" d="M474.3 259.419s-.448-7.273.449-9.216.548-2.391.249-3.886-1-5.579-4.135-6.177c-4.216-.8-5.915 1.28-4.782 7.622 1.495 8.369-.448 11.657-.448 11.657z" class="cls-6" transform="translate(-465.635 -239.976)"/>
                    </g>
                    <g id="그룹_3651" transform="translate(0 20.494)">
                        <path id="패스_1764" d="M452.166 263.112s-2.324 6.881-1.2 8.668c1.794 2.84 9.882.15 9.882.15l-.149-1.345s-5.7 1.2-6.3-1.345c-.423-1.8.9-5.231.9-5.231z" class="cls-4" transform="translate(-450.661 -263.112)"/>
                    </g>
                    <g id="그룹_3652" transform="translate(8.18 8.637)">
                        <path id="패스_1765" d="M475.445 232.036a27.217 27.217 0 0 0 .522-2.733c0-.5-.13-2.112-.13-2.112l2.218.373s.13 2.981.13 4.1-.392 1.988-1.435 1.615a2.1 2.1 0 0 1-1.305-1.243z" class="cls-4" transform="translate(-475.445 -227.191)"/>
                    </g>
                    <g id="그룹_3653" transform="translate(0.957 13.212)">
                        <path id="패스_1766" d="M459.737 241.059c-2.54-.3-6.177 7.173-6.177 7.173l4.384 1.794s3.918-8.717 1.793-8.967z" class="cls-6" transform="translate(-453.56 -241.051)"/>
                    </g>
                    <g id="그룹_3654" transform="translate(10.341 26.285)">
                        <path id="사각형_3704" d="M0 0H2.503V3.979H0z" class="cls-8"/>
                    </g>
                    <g id="그룹_3655" transform="translate(9.949 26.497)">
                        <path id="패스_1767" d="M482.6 282.507a6.546 6.546 0 0 1 1.2.019c.044.364-.809.4-.809.4s.841-.066.908.184-.932.225-.932.225.881.023.907.242-1.068.258-1.068.258.984-.014.974.209-1.279.348-1.924.206a2.709 2.709 0 0 0-1.037-.06l-.009-1.434a6.87 6.87 0 0 0 .324-1.115l.033-.336s.275 1.037.5 1.083a4.684 4.684 0 0 0 .933.119z" class="cls-4" transform="translate(-480.803 -281.299)"/>
                    </g>
                    <g id="그룹_3656" transform="translate(12.745 27.119)">
                        <path id="패스_1768" d="M489.385 285.882l-.1-.375a1.018 1.018 0 0 0 .732-1.069.8.8 0 0 0-.746-.866l.01-.387a1.191 1.191 0 0 1 1.123 1.232 1.4 1.4 0 0 1-1.019 1.465z" class="cls-8" transform="translate(-489.276 -283.184)"/>
                    </g>
                    <g id="그룹_3657" transform="translate(9.189 10.219)">
                        <path id="패스_1769" d="M478.5 232.02a7.126 7.126 0 0 0 1.32 1.495c.411.212.374.15.374.15l-.013-.61-1.445-1.071z" class="cls-9" transform="translate(-478.501 -231.983)"/>
                    </g>
                    <g id="그룹_3658" transform="translate(11.044 2.365)">
                        <path id="패스_1770" fill="#40c187" d="M484.123 208.432s2.541-1.644 3.139 3.587c.21 1.837-2.391 1.345-2.391 1.345z" transform="translate(-484.123 -208.187)"/>
                    </g>
                    <g id="그룹_3659" transform="translate(6.88 2.452)">
                        <path id="패스_1771" d="M477.041 217.3c1.68-.389 1.047-9.082-2.386-8.846-3.218.221-3.982 3.4-2.232 6.335 1.305 2.189 3.237 2.832 4.618 2.511z" class="cls-4" transform="translate(-471.507 -208.451)"/>
                    </g>
                    <g id="그룹_3660" transform="translate(4.173 0)">
                        <path id="패스_1772" d="M468.184 212.175s-4.135-.473-4.732-3.313.6-7.174 4.334-7.771c3.276-.524 5.165 2.072 3.5 3.238-1.495 1.046-3.363 1.158-3.662 3.25a11.7 11.7 0 0 0 .56 4.596z" class="cls-7" transform="translate(-463.305 -201.022)"/>
                    </g>
                    <g id="그룹_3661" transform="translate(11.627 6.801)">
                        <path id="패스_1773" d="M485.919 223.428l-.03-.126.557-.134-.43-1.5.124-.036.467 1.634z" class="cls-9" transform="translate(-485.889 -221.628)"/>
                    </g>
                    <g id="그룹_3662" transform="translate(9.962 6.282)">
                        <path id="패스_1774" d="M480.966 220.512l-.123-.038a.649.649 0 0 1 .5-.392c.382-.091.465.087.473.107l-.12.048s-.055-.093-.323-.03a.526.526 0 0 0-.407.305z" class="cls-9" transform="translate(-480.843 -220.056)"/>
                    </g>
                    <g id="그룹_3663" transform="translate(11.803 5.614)">
                        <path id="패스_1775" d="M486.544 218.4l-.123-.041a.54.54 0 0 1 .514-.327c.3-.018.345.172.347.18l-.125.03s-.029-.091-.214-.081a.417.417 0 0 0-.399.239z" class="cls-9" transform="translate(-486.421 -218.031)"/>
                    </g>
                    <g id="그룹_3664" transform="translate(11.454 9.618)">
                        <path id="패스_1776" d="M486.093 230.452a2.111 2.111 0 0 1-.728-.171l.052-.118c.006 0 .612.266.917.113l.058.116a.671.671 0 0 1-.299.06z" class="cls-9" transform="translate(-485.365 -230.163)"/>
                    </g>
                    <g id="그룹_3665" transform="translate(0.932 17.094)">
                        <path id="패스_1777" d="M457.929 257.99l-4.443-1.818.049-.119 4.324 1.769a32.279 32.279 0 0 0 1.615-5.009l.127.024a33.12 33.12 0 0 1-1.648 5.094z" class="cls-11" transform="translate(-453.486 -252.813)"/>
                    </g>
                </g>
                <g id="그룹_3698" transform="translate(7.19 33.495)">
                    <g id="그룹_3697" transform="translate(0 0)">
                        <path id="패스_1805" d="M476.211 340.768l-.124-.036c.027-.093 2.694-9.391 3.585-14.559.716-4.154-.471-5.987-2.836-9.639-.6-.928-1.282-1.98-2.027-3.216-3.673-6.091-1.976-10.772-1.959-10.815l.12.047c-.017.043-1.688 4.669 1.95 10.7.745 1.235 1.425 2.286 2.025 3.213 2.383 3.681 3.579 5.528 2.854 9.731-.892 5.177-3.561 14.481-3.588 14.574z" class="cls-12" transform="translate(-472.444 -302.502)"/>
                    </g>
                </g>
                <g id="그룹_3700" transform="translate(12.1 33.467)">
                    <g id="그룹_3699" transform="translate(0 0)">
                        <path id="패스_1806" d="M494.9 330.242l-.115-.057 3.164-6.341c2.082-4.173 4.323-10.4 4.323-14.224 0-2.274-1.133-2.442-6.58-3.251l-.761-.113c-6.005-.9-7.548-3.678-7.6-3.771l.11-.067c.014.022 1.578 2.824 7.512 3.71l.761.113c5.406.8 6.691.993 6.691 3.378a23.431 23.431 0 0 1-.981 5.679 49.294 49.294 0 0 1-3.356 8.6z" class="cls-12" transform="translate(-487.322 -302.417)"/>
                    </g>
                </g>
                <g id="그룹_3701" transform="translate(4.56 32.3)">
                    <path id="패스_1807" d="M464.859 298.883l-.382 1.468 10.457-.181-1.408-1.287z" class="cls-12" transform="translate(-464.477 -298.883)"/>
                </g>
            </g>
            <g id="그룹_5314" transform="translate(-10682.754 6389.23)">
                <g id="그룹_5200" transform="translate(0 48.105)">
                    <g id="그룹_3543" transform="translate(0 0)">
                        <path id="사각형_3700" d="M0 0H101.763V69.637H0z" class="cls-13" transform="translate(0 0)"/>
                    </g>
                    <g id="그룹_3544" transform="translate(42.073 69.639)">
                        <path id="패스_1684" fill="#94989d" d="M596.574 325.48H582.1l-1.575-17.089h17.619z" transform="translate(-580.53 -308.391)"/>
                    </g>
                    <g id="그룹_3545" transform="translate(1.368 3.416)">
                        <path id="사각형_3701" fill="#f1f2f3" d="M0 0H99.03V51.945H0z" transform="translate(0 0)"/>
                    </g>
                    <g id="그룹_3563" transform="translate(24.454 86.344)">
                        <path id="패스_1688" d="M615.878 329.246h-52.856l3.937-4.253h44.982z" class="cls-13" transform="translate(-563.022 -324.993)"/>
                    </g>
                    <g id="그룹_3606" transform="translate(31.762 12.49)">
                        <g id="그룹_3599" transform="translate(1.687 18.507)">
                            <path id="패스_1719" fill="#ffa304" d="M571.96 271.336a17.107 17.107 0 0 0 5.961 11.706l11.149-13.048z" transform="translate(-571.96 -269.994)"/>
                        </g>
                        <g id="그룹_3600" transform="translate(0 0)">
                            <path id="패스_1720" fill="#4dd87a" d="M587.448 268.715l-1.342-17.115a17.163 17.163 0 0 0-15.768 18.454l17.111-1.343z" transform="translate(-570.284 -251.604)"/>
                        </g>
                        <g id="그룹_3601" transform="translate(18.798 18.506)"/>
                        <g id="그룹_3602" transform="translate(7.648 18.507)">
                            <path id="패스_1722" d="M589.033 269.994l-11.149 13.048a17.108 17.108 0 0 0 12.492 4.063l-1.342-17.111z" class="cls-19" transform="translate(-577.884 -269.994)"/>
                        </g>
                        <g id="그룹_3603" transform="translate(17.454 1.342)">
                            <path id="패스_1723" d="M588.971 270.1l11.149-13.049a17.108 17.108 0 0 0-12.493-4.062z" class="cls-7" transform="translate(-587.628 -252.938)"/>
                        </g>
                        <g id="그룹_3604" transform="translate(18.798 5.457)">
                            <path id="패스_1724" fill="#1cab4a" d="M588.963 270.076l17.111-1.343a17.115 17.115 0 0 0-5.962-11.706l-11.149 13.049z" transform="translate(-588.963 -257.027)"/>
                        </g>
                        <g id="그룹_3605" transform="translate(18.798 17.163)">
                            <path id="패스_1725" d="M590.305 287.113a17.164 17.164 0 0 0 15.768-18.454L588.963 270z" class="cls-21" transform="translate(-588.963 -268.659)"/>
                        </g>
                    </g>
                </g>
                <g id="그룹_3640" transform="translate(0 0)">
                    <g id="그룹_3609" transform="translate(11.247 70.822)">
                        <g id="그룹_3607" transform="translate(0 0.567)">
                            <path id="패스_1726" d="M376.856 403.647c1.541-.128 1.958-2.371 1.8-3.453s.26-1.862.155-2.628c-.206-1.494-2.68-1.907-2.937-.155-.207 1.41-.876 2.127-.876 3.4.002 1.651.621 2.939 1.858 2.836z" class="cls-6" transform="translate(-375.001 -396.262)"/>
                        </g>
                        <g id="그룹_3608">
                            <path id="패스_1727" d="M376.856 401.987c1.541-.128 1.958-2.37 1.8-3.453s.26-1.862.155-2.628c-.206-1.495-2.68-1.907-2.937-.155-.207 1.41-.876 2.126-.876 3.4.002 1.649.621 2.939 1.858 2.836z" class="cls-22" transform="translate(-375.001 -394.602)"/>
                        </g>
                    </g>
                    <g id="그룹_3610" transform="translate(12.355 70.091)">
                        <path id="패스_1728" d="M379.225 394.881a1.237 1.237 0 0 0 1.237-.825l-.154-1.6-2.062.052.206 1.649a.8.8 0 0 0 .773.724z" class="cls-23" transform="translate(-378.246 -392.459)"/>
                    </g>
                    <g id="그룹_3615" transform="translate(19.853 70.091)">
                        <g id="그룹_3613" transform="translate(0 0.732)">
                            <g id="그룹_3611" transform="translate(0 0.567)">
                                <path id="패스_1729" d="M402.182 403.647c-1.541-.128-1.958-2.371-1.8-3.453s-.26-1.862-.154-2.628c.206-1.494 2.68-1.907 2.937-.155.207 1.41.876 2.127.876 3.4-.003 1.651-.622 2.939-1.859 2.836z" class="cls-6" transform="translate(-400.207 -396.262)"/>
                            </g>
                            <g id="그룹_3612">
                                <path id="패스_1730" d="M402.182 401.987c-1.541-.128-1.958-2.37-1.8-3.453s-.26-1.862-.154-2.628c.206-1.495 2.68-1.907 2.937-.155.207 1.41.876 2.126.876 3.4-.003 1.649-.622 2.939-1.859 2.836z" class="cls-22" transform="translate(-400.207 -394.602)"/>
                            </g>
                        </g>
                        <g id="그룹_3614" transform="translate(0.507)">
                            <path id="패스_1731" d="M402.929 394.881a1.237 1.237 0 0 1-1.237-.825l.154-1.6 2.061.052-.206 1.649a.8.8 0 0 1-.772.724z" class="cls-23" transform="translate(-401.692 -392.459)"/>
                        </g>
                    </g>
                    <g id="그룹_3616" transform="translate(6.398 38.296)">
                        <path id="패스_1732" fill="#0b67c5" d="M363.356 309.39a4.181 4.181 0 0 1-2.164-2.319c-.618-1.7-1.237-6.184 4.329-7.266s11.132-.155 12.832 1.7.619 6.8.309 7.267-15.306.618-15.306.618z" transform="translate(-360.801 -299.344)"/>
                    </g>
                    <g id="그룹_3617" transform="translate(6.904 14.925)">
                        <path id="패스_1733" d="M363.1 232.156c2.216-2.216 14.688-1.082 16.233.154s-.464 23.5-.464 23.5l-15.151.155s-2.761-21.671-.618-23.809z" class="cls-19" transform="translate(-362.283 -230.896)"/>
                    </g>
                    <g id="그룹_3618" transform="translate(22.559 16.339)">
                        <path id="패스_1734" d="M409.521 235.039s7.421 15.306 5.875 19.171-7.266 3.711-7.266 3.711z" class="cls-19" transform="translate(-408.13 -235.039)"/>
                    </g>
                    <g id="그룹_3619" transform="translate(0 16.185)">
                        <path id="패스_1735" d="M349.78 234.587s-9.328 18.4-7.473 21.387 6.554-.89 6.554-.89l1.331-10.19z" class="cls-19" transform="translate(-342.063 -234.587)"/>
                    </g>
                    <g id="그룹_3620" transform="translate(14.255 11.083)">
                        <path id="패스_1736" d="M383.818 224.077l.618-4.432h2.371l.721 4.638a1.866 1.866 0 0 1-2.062 1.443 1.467 1.467 0 0 1-1.648-1.649z" class="cls-23" transform="translate(-383.811 -219.645)"/>
                    </g>
                    <g id="그룹_3621" transform="translate(8.856 40.921)">
                        <path id="패스_1737" d="M370.494 337.489h4.1s3.7-30.587-2.784-30.457c-7.719.155-1.316 30.457-1.316 30.457z" class="cls-21" transform="translate(-368.001 -307.032)"/>
                    </g>
                    <g id="그룹_3622" transform="translate(17.167 40.921)">
                        <path id="패스_1738" d="M394.638 337.489h4.174s3.432-30.587-2.786-30.457c-7.392.155-1.388 30.457-1.388 30.457z" class="cls-21" transform="translate(-392.338 -307.032)"/>
                    </g>
                    <g id="그룹_3623" transform="translate(14.88 11.804)">
                        <path id="패스_1739" d="M385.642 221.861s.309 1.443 1.237 1.443 1.237-1.546 1.237-1.546z" class="cls-25" transform="translate(-385.642 -221.758)"/>
                    </g>
                    <g id="그룹_3624" transform="translate(18.118 3.993)">
                        <path id="패스_1740" d="M396.7 199.065s.541 2.551-.464 3.711c-.66.762-.773-1.778-1.082-3.092s1.546-.619 1.546-.619z" class="cls-6" transform="translate(-395.124 -198.881)"/>
                    </g>
                    <g id="그룹_3625" transform="translate(12.974 2.528)">
                        <path id="패스_1741" d="M383.214 204.485c1.138 0 2.471-1.345 2.879-3s.5-6.907-2.9-6.9-3.492 5.883-2.767 7.324 1.654 2.578 2.788 2.576z" class="cls-23" transform="translate(-380.061 -194.59)"/>
                    </g>
                    <g id="그룹_3626" transform="translate(12.166)">
                        <path id="패스_1742" d="M378.346 195.306a4.86 4.86 0 0 1-.541-1.546 6.825 6.825 0 0 1 .232-3.324 1.867 1.867 0 0 1 .928-1.237c.155-.077-.283.979-.077 1.082s.773-2.242 3.247-2.474a9.807 9.807 0 0 0 3.092-.618c.386-.078-.516 1.443-.387 1.546s1.082-.387 1.314-.155a2.475 2.475 0 0 1-.7 3.479c-.747.467-2.86.154-3.788-.464s-2.049.219-2.667 1.3a5.866 5.866 0 0 0-.653 2.411z" class="cls-6" transform="translate(-377.693 -187.187)"/>
                    </g>
                    <g id="그룹_3627" transform="translate(18.951 6.599)">
                        <path id="패스_1743" d="M397.565 206.667s.794-.411.928.1a1.949 1.949 0 0 1-.773 2.113z" class="cls-23" transform="translate(-397.565 -206.511)"/>
                    </g>
                    <g id="그룹_3628" transform="translate(12.131 6.624)">
                        <path id="패스_1744" d="M378.582 206.742s-.794-.41-.927.1a1.989 1.989 0 0 0 .96 2.139z" class="cls-23" transform="translate(-377.592 -206.587)"/>
                    </g>
                    <g id="그룹_3635" transform="translate(13.943 6.305)">
                        <g id="그룹_3629" transform="translate(2.055 1.299)">
                            <path id="패스_1745" d="M389.577 211.456h-.659v-2h.134v1.866h.526z" class="cls-25" transform="translate(-388.918 -209.457)"/>
                        </g>
                        <g id="그룹_3630" transform="translate(0.69 0.923)">
                            <path id="패스_1746" d="M385.14 208.8a.221.221 0 1 1 .221-.221.222.222 0 0 1-.221.221zm0-.309a.088.088 0 1 0 .088.088.088.088 0 0 0-.088-.089z" class="cls-25" transform="translate(-384.918 -208.356)"/>
                        </g>
                        <g id="그룹_3631" transform="translate(3.034 0.923)">
                            <path id="패스_1747" d="M392.007 208.8a.221.221 0 1 1 .221-.221.221.221 0 0 1-.221.221zm0-.309a.088.088 0 1 0 .088.088.088.088 0 0 0-.088-.089z" class="cls-25" transform="translate(-391.785 -208.356)"/>
                        </g>
                        <g id="그룹_3632" transform="translate(0 0.063)">
                            <path id="패스_1748" d="M382.968 206.28l-.07-.114a2.232 2.232 0 0 1 .72-.28c.431-.066.432-.066.446.006.005.024 0 .068-.072.086v-.008c-.011 0-.067 0-.352.047a2.127 2.127 0 0 0-.672.263z" class="cls-25" transform="translate(-382.898 -205.838)"/>
                        </g>
                        <g id="그룹_3633" transform="translate(3.098)">
                            <path id="패스_1749" d="M393 206.091a1.024 1.024 0 0 0-.385-.237 1.14 1.14 0 0 0-.616-.042l-.031-.13a1.258 1.258 0 0 1 .7.049 1.079 1.079 0 0 1 .44.279z" class="cls-25" transform="translate(-391.972 -205.653)"/>
                        </g>
                        <g id="그룹_3634" transform="translate(1.604 4.225)">
                            <path id="패스_1750" d="M388.36 218.493h-.041a.964.964 0 0 1-.724-.357l.109-.078a.829.829 0 0 0 .621.3.807.807 0 0 0 .66-.331l.111.074a.937.937 0 0 1-.736.392z" class="cls-25" transform="translate(-387.596 -218.027)"/>
                        </g>
                    </g>
                    <g id="그룹_3636" transform="translate(23.744 24.173)">
                        <path id="패스_1751" d="M411.6 268.391s1.649-2.474 1.443-4.226c-.161-1.365-1.34-6.184-1.34-6.184z" class="cls-26" transform="translate(-411.602 -257.981)"/>
                    </g>
                    <g id="그룹_3637" transform="translate(5.381 22.627)">
                        <path id="패스_1752" d="M360.416 253.453s-2.834 10.719-2.577 11.029a21.12 21.12 0 0 0 1.855 1.443z" class="cls-26" transform="translate(-357.822 -253.453)"/>
                    </g>
                    <g id="그룹_3638" transform="translate(6.428 28.759)">
                        <path id="패스_1753" d="M361.774 282.854l-.884-11.441h18.346l-1.216 11.441z" class="cls-2" transform="translate(-360.889 -271.414)"/>
                    </g>
                    <g id="그룹_3639" transform="translate(6.229 32.922)">
                        <path id="패스_1754" d="M362.25 284.685a16.647 16.647 0 0 1 1.87-.463c.171.446-.9.858-.9.858s1.043-.35 1.207-.055-1.108.58-1.108.58 1.218-.161 1.321.107-1.365.576-1.365.576 1.369-.168 1.427.116-1.715.865-2.576.889-1.252.072-1.252.072l-.569-1.88a5.945 5.945 0 0 0 .161-1.444l-.065-.436s.676 1.225.978 1.211a7.827 7.827 0 0 0 .871-.131z" class="cls-23" transform="translate(-360.305 -283.604)"/>
                    </g>
                </g>
                <g id="그룹_5313" transform="translate(93.335 56.88)">
                    <g id="그룹_5258" transform="translate(10.91 1.916)">
                        <g id="그룹_5257" transform="translate(0)">
                            <path id="패스_2525" fill="#fabd48" d="M317 279.522a5.46 5.46 0 0 1 2.525 5.651c-.6 3.968-2.164 4.809-1.563 6.252a4.815 4.815 0 0 1 .481 2.285l-5.411.841-3.487-7.575s.842-5.41 2.525-6.733 4.93-.721 4.93-.721z" transform="translate(-309.548 -279.386)"/>
                        </g>
                    </g>
                    <g id="그룹_5260" transform="translate(22.332 27.961)">
                        <g id="그룹_5259" transform="translate(0 0)">
                            <path id="패스_2526" d="M353.015 378.589s1.918 3.512 4.689 2.976a8.764 8.764 0 0 0 4.689-3.066z" class="cls-7" transform="translate(-353.015 -378.499)"/>
                        </g>
                    </g>
                    <g id="그룹_5262" transform="translate(4.803 77.823)">
                        <g id="그룹_5261">
                            <path id="패스_2527" d="M287.431 568.386l-1.122 9.208s.3.291 1.165.185 1.074-1.2 1.074-1.2l1.821-8.324z" class="cls-28" transform="translate(-286.309 -568.25)"/>
                        </g>
                    </g>
                    <g id="그룹_5264" transform="translate(17.462 78.078)">
                        <g id="그룹_5263" transform="translate(0 0)">
                            <path id="패스_2528" d="M334.482 569.219l.169 8.355 1.621-.085.929-8.087z" class="cls-28" transform="translate(-334.482 -569.219)"/>
                        </g>
                    </g>
                    <g id="그룹_5266" transform="translate(5.559 33.101)">
                        <g id="그룹_5265" transform="translate(0 0)">
                            <path id="패스_2529" d="M289.186 443.058l3.607.18s4.238-16.5 5.32-21.822 2.615-11.182 2.615-11.182 0 7.124-.271 16.412.09 16.863.09 16.863l3.7-.09s2.8-13.8 3.968-22.273.721-13.166.18-16.592a22.067 22.067 0 0 0-1.894-6.042l-11.723-.451a72.38 72.38 0 0 0-3.066 11.452c-.993 5.861-2.526 33.545-2.526 33.545z" class="cls-19" transform="translate(-289.186 -398.06)"/>
                        </g>
                    </g>
                    <g id="그룹_5268" transform="translate(8.084 14.254)">
                        <g id="그룹_5267" transform="translate(0)">
                            <path id="패스_2530" d="M298.8 353.751s6.763.722 7.936-.18 1.262-1.443 1.262-1.443a3.843 3.843 0 0 0 1.623 1.263c.992.361 6.493-.181 6.493-.181s-1.491-10.893-1.623-14.068c-.18-4.328-1.082-9.288-1.713-10.46a6.1 6.1 0 0 0-2.705-2.164 10.7 10.7 0 0 1-3.787.812 4.076 4.076 0 0 1-2.525-.992s-2.705 1.8-3.156 2.705.722 4.87.722 9.919a53.845 53.845 0 0 1-.722 8.3 42.963 42.963 0 0 1-1.805 6.489z" class="cls-7" transform="translate(-298.795 -326.338)"/>
                        </g>
                    </g>
                    <g id="그룹_5270" transform="translate(14.397 9.685)">
                        <g id="그룹_5269" transform="translate(0 0)">
                            <path id="패스_2531" d="M322.937 308.951l-.12 5.29a1.68 1.68 0 0 0 1.563.721 2.333 2.333 0 0 0 1.683-.481l-.872-4.3z" class="cls-28" transform="translate(-322.817 -308.951)"/>
                        </g>
                    </g>
                    <g id="그룹_5272" transform="translate(0 85.073)">
                        <g id="그룹_5271">
                            <path id="패스_2532" d="M268.03 599.747h4.992a1.475 1.475 0 0 1 .768-.208.5.5 0 0 1 .538.347h1.152a5.829 5.829 0 0 0 0-1.664c-.154-.416.38-1.895.2-2.017s-.694.548-1.462.548a6.976 6.976 0 0 1-1.523-.914s-.3 2.132-3.2 2.591c-1.432.225-1.465 1.317-1.465 1.317z" class="cls-21" transform="translate(-268.03 -595.839)"/>
                        </g>
                    </g>
                    <g id="그룹_5274" transform="translate(17.104 85.073)">
                        <g id="그룹_5273">
                            <path id="패스_2533" d="M340.637 599.747h-4.992a1.476 1.476 0 0 0-.768-.208.5.5 0 0 0-.538.347h-1.152a5.826 5.826 0 0 1 0-1.664c.153-.416-.144-2.017.038-2.138s.459.67 1.227.67a6.975 6.975 0 0 0 1.523-.914s.3 2.132 3.2 2.591c1.425.224 1.462 1.316 1.462 1.316z" class="cls-21" transform="translate(-333.12 -595.839)"/>
                        </g>
                    </g>
                    <g id="그룹_5276" transform="translate(14.576 9.763)">
                        <g id="그룹_5275" transform="translate(0 0)">
                            <path id="패스_2534" d="M323.5 309.248s.868 1.851 1.508 1.9a.61.61 0 0 0 .687-.559z" class="cls-29" transform="translate(-323.499 -309.248)"/>
                        </g>
                    </g>
                    <g id="그룹_5278" transform="translate(13.191 2.108)">
                        <g id="그룹_5277">
                            <path id="패스_2535" d="M321.808 289.108c-1.542-.044-3.506-2.23-3.577-4.822s1.1-4.289 2.862-4.164c2.218.157 3.176 2.109 3.033 4.387s-1.226 4.63-2.318 4.599z" class="cls-28" transform="translate(-318.228 -280.115)"/>
                        </g>
                    </g>
                    <g id="그룹_5280" transform="translate(16.611 6.274)">
                        <g id="그룹_5279" transform="translate(0 0)">
                            <path id="패스_2536" d="M331.286 297.472l-.042-.137.461-.14-.28-1.195.139-.033.312 1.322z" class="cls-29" transform="translate(-331.245 -295.97)"/>
                        </g>
                    </g>
                    <g id="그룹_5282" transform="translate(14.97 5.761)">
                        <g id="그룹_5281" transform="translate(0 0)">
                            <path id="패스_2537" d="M325.124 294.4l-.125-.068a.625.625 0 0 1 .445-.311.518.518 0 0 1 .454.214l-.119.079a.369.369 0 0 0-.323-.151.483.483 0 0 0-.332.237z" class="cls-29" transform="translate(-324.999 -294.015)"/>
                        </g>
                    </g>
                    <g id="그룹_5284" transform="translate(17.186 5.555)">
                        <g id="그룹_5283" transform="translate(0 0)">
                            <path id="패스_2538" d="M333.558 293.615l-.125-.069a.623.623 0 0 1 .445-.311.516.516 0 0 1 .454.214l-.119.079a.37.37 0 0 0-.322-.151.487.487 0 0 0-.333.238z" class="cls-29" transform="translate(-333.433 -293.233)"/>
                        </g>
                    </g>
                    <g id="그룹_5286" transform="translate(16.072 8.898)">
                        <g id="그룹_5285" transform="translate(0 0)">
                            <path id="패스_2539" d="M329.887 306.369h-.093a.88.88 0 0 1-.6-.326l.114-.086a.748.748 0 0 0 .5.269.575.575 0 0 0 .4-.072l.1.1a.594.594 0 0 1-.421.115z" class="cls-29" transform="translate(-329.194 -305.955)"/>
                        </g>
                    </g>
                    <g id="그룹_5288" transform="translate(16.348 15.736)">
                        <g id="그룹_5287" transform="translate(0)">
                            <path id="패스_2540" d="M331.248 356.289l-.142-.007c0-.023.112-2.355.172-6.389s-1.025-17.767-1.035-17.905l.142-.011c.011.138 1.1 13.88 1.036 17.918s-.172 6.371-.173 6.394z" class="cls-11" transform="translate(-330.242 -331.977)"/>
                        </g>
                    </g>
                    <g id="그룹_5290" transform="translate(16.801 27.052)">
                        <g id="그룹_5289">
                            <path id="사각형_4041" fill="#c1d8fa" d="M0 0H16.803V1.278H0z"/>
                        </g>
                    </g>
                    <g id="그룹_5292" transform="translate(14.757 24.071)">
                        <g id="그룹_5291">
                            <path id="패스_2541" d="M325.271 365.152a9.688 9.688 0 0 1 2.705-1.443c.992-.18 2.8 1.713 2.8 1.713l-.9.721s-1.353-.721-1.894-.541-1.142.977-1.833.8a1.851 1.851 0 0 0-1.413.459l-.541-1.263z" class="cls-28" transform="translate(-324.189 -363.697)"/>
                        </g>
                    </g>
                    <g id="그룹_5294" transform="translate(20.078 16.238)">
                        <g id="그룹_5293" transform="translate(0)">
                            <path id="패스_2542" fill="#bed6fa" d="M346.059 333.887l-1.623 11.092h13.346l1.984-11.092z" transform="translate(-344.436 -333.887)"/>
                        </g>
                    </g>
                    <g id="그룹_5296" transform="translate(29.361 25.887)">
                        <g id="그룹_5295">
                            <path id="패스_2543" d="M381.585 370.606c.807 0 .908 1.8.5 2.345s-1.715.361-2.219.27.912-2.615 1.719-2.615z" class="cls-28" transform="translate(-379.764 -370.606)"/>
                        </g>
                    </g>
                    <g id="그룹_5298" transform="translate(4.434 16.96)">
                        <g id="그룹_5297" transform="translate(0)">
                            <path id="패스_2544" d="M290.359 336.633s-7.575 11-4.87 13.707 11.092-2.705 11.092-2.705l-.812-2.886s-4.779 2.345-5.411 1.713 1.533-4.779 1.533-7.034a2.755 2.755 0 0 0-1.532-2.795z" class="cls-7" transform="translate(-284.905 -336.633)"/>
                        </g>
                    </g>
                    <g id="그룹_5300" transform="translate(8.187)">
                        <g id="그룹_5299">
                            <path id="패스_2545" d="M301.308 293.023c-.481-.6 1.443-2.044.481-4.088s-3.487-6.853-2.284-9.739a19.974 19.974 0 0 1 4.569-6.493c1.683-1.563 4.886.23 5.29 1.443.6 1.8-1.207.148-2.852.834-2.383.993-1.835 4.65-1.234 6.694.365 1.242 1.2 4.616.478 6.78s-2.886 4.088-2.886 5.531c.001 1.278-1.562-.962-1.562-.962z" class="cls-19" transform="translate(-299.186 -272.093)"/>
                        </g>
                    </g>
                    <g id="그룹_5302" transform="translate(10.622 25.394)">
                        <g id="그룹_5301" transform="translate(0 0)">
                            <path id="패스_2546" d="M313.509 371.337l-.471-2.417a29.778 29.778 0 0 1-4.568 1.286l-.018-.142a30.827 30.827 0 0 0 4.615-1.306l.078-.028.5 2.58z" class="cls-11" transform="translate(-308.453 -368.73)"/>
                        </g>
                    </g>
                    <g id="그룹_5304" transform="translate(13.881 26.025)">
                        <g id="그룹_5303" transform="translate(0 0)">
                            <path id="사각형_4042" d="M0 0H0.143V1.578H0z" class="cls-11" transform="translate(0 0.025) rotate(-10.008)"/>
                        </g>
                    </g>
                    <g id="그룹_5306" transform="translate(13.987 27.946)">
                        <g id="그룹_5305">
                            <path id="패스_2547" d="M321.526 378.982a.27.27 0 1 1 .269-.269.27.27 0 0 1-.269.269zm0-.4a.127.127 0 1 0 .127.127.127.127 0 0 0-.127-.123z" class="cls-11" transform="translate(-321.257 -378.443)"/>
                        </g>
                    </g>
                    <g id="그룹_5308" transform="translate(15.845 36.11)">
                        <g id="그룹_5307" transform="translate(0)">
                            <path id="패스_2548" d="M328.6 410.05a.269.269 0 1 1 .269-.269.27.27 0 0 1-.269.269zm0-.4a.127.127 0 1 0 .126.127.127.127 0 0 0-.126-.123z" class="cls-11" transform="translate(-328.328 -409.511)"/>
                        </g>
                    </g>
                    <g id="그룹_5310" transform="translate(15.845 29.531)">
                        <g id="그룹_5309" transform="translate(0)">
                            <path id="패스_2549" d="M328.6 385.011a.269.269 0 1 1 .269-.27.27.27 0 0 1-.269.27zm0-.4a.127.127 0 1 0 .126.126.127.127 0 0 0-.126-.122z" class="cls-11" transform="translate(-328.328 -384.472)"/>
                        </g>
                    </g>
                    <g id="그룹_5312" transform="translate(15.464 22.783)">
                        <g id="그룹_5311" transform="translate(0 0)">
                            <path id="패스_2550" d="M327.148 359.333a.269.269 0 1 1 .27-.269.27.27 0 0 1-.27.269zm0-.4a.127.127 0 1 0 .127.127.127.127 0 0 0-.127-.123z" class="cls-11" transform="translate(-326.879 -358.794)"/>
                        </g>
                    </g>
                </g>
            </g>
        </g>
    </g>
</svg>
