<svg xmlns="http://www.w3.org/2000/svg" width="140" height="94" viewBox="0 0 140 94">
    <defs>
        <style>
            .cls-2{fill:#add0fa}.cls-3{fill:#ffb9a3}.cls-4{fill:#d8e9fc}.cls-5{fill:#087ef7}.cls-7{fill:#29855f}.cls-9{fill:#08a69f}.cls-10{fill:#d34e40}.cls-11{fill:#0d3150}.cls-12{fill:#fff}.cls-13{fill:#f2b1a2}.cls-14{fill:#3c90f1}.cls-15{fill:#465166}.cls-18{fill:#ffc304}
        </style>
    </defs>
    <g id="main_img_com" transform="translate(-602 -1957)">
        <g id="그룹_3987" transform="translate(210.229 1697.66)">
            <g id="그룹_3920" transform="translate(437.771 267.116)">
                <g id="그룹_3849" transform="translate(77.448 46.8)">
                    <g id="그룹_3848">
                        <path id="패스_1833" d="M737.244 502.7a.218.218 0 0 1-.212-.167l-9.172-38.509a.218.218 0 1 1 .423-.1l9.172 38.509a.217.217 0 0 1-.161.262.221.221 0 0 1-.05.005z" class="cls-2" transform="translate(-727.854 -463.753)"/>
                    </g>
                </g>
                <g id="그룹_3851" transform="translate(1.017 46.8)">
                    <g id="그룹_3850">
                        <path id="패스_1834" d="M441.8 502.7a.217.217 0 0 1-.212-.268l9.172-38.509a.218.218 0 1 1 .423.1l-9.173 38.507a.218.218 0 0 1-.21.17z" class="cls-2" transform="translate(-441.58 -463.753)"/>
                    </g>
                </g>
                <g id="그룹_3853" transform="translate(23.884)">
                    <g id="그룹_3852">
                        <path id="패스_1835" d="M527.283 288.89c.261-.1.973 2.166 1.234 2.067s.161-2.478.514-2.493.364 2.368.65 2.886.631.327.749 1.028-.643 1.527-.532 2.052a6 6 0 0 0 .4 1.131l-1.659.422a7.925 7.925 0 0 0-.79-2 3.7 3.7 0 0 1-.187-2.376c.161-.356-.64-2.618-.379-2.717z" class="cls-3" transform="translate(-527.231 -288.464)"/>
                    </g>
                </g>
                <g id="그룹_3855" transform="translate(21.579 80.65)">
                    <g id="그룹_3854">
                        <path id="패스_1836" d="M518.829 590.538l-.235 3.175 2.117.235.353-3.175z" class="cls-3" transform="translate(-518.594 -590.538)"/>
                    </g>
                </g>
                <g id="그룹_3857" transform="translate(38.757 80.579)">
                    <g id="그룹_3856">
                        <path id="패스_1837" d="M583.412 590.273l-.475 3.148 2.093.4.593-3.139z" class="cls-3" transform="translate(-582.936 -590.273)"/>
                    </g>
                </g>
                <g id="그룹_3859" transform="translate(27.712 20.113)">
                    <g id="그룹_3858">
                        <path id="패스_1838" d="M560.421 396.17s6-26.282 3.881-29.81c-1.826-3.044-19.05-3.7-21.7-.176-2.85 3.8 1.058 29.987 1.058 29.987z" class="cls-4" transform="translate(-541.565 -363.797)"/>
                    </g>
                </g>
                <g id="그룹_3861" transform="translate(25.224 55.308)">
                    <g id="그룹_3860">
                        <path id="사각형_4030" d="M0 0H21.167V4.763H0z" class="cls-4"/>
                    </g>
                </g>
                <g id="그룹_3863" transform="translate(20.538 49.782)">
                    <g id="그룹_3862">
                        <path id="패스_1839" d="M514.795 506.2s-1.058-26.282 3.7-29.458 9.7-1.235 13.582-1.235 11.787-.3 12.7 2.646c1.588 5.115-7.409 28.046-7.409 28.046h-5.115s4.762-22.226 3.7-22.931-3.881-.176-5.821-.353-5.468-1.235-6.35.706-3.7 22.578-3.7 22.578z" class="cls-5" transform="translate(-514.695 -474.923)"/>
                    </g>
                </g>
                <g id="그룹_3865" transform="translate(30.163 22.136)">
                    <g id="그룹_3864">
                        <path id="패스_1840" fill="#21bf54" d="M550.747 398.9s4.233-15.523 6-19.756 4.763-7.585 6.526-7.761 3.7 1.94 6.35 2.117 4.586 4.939 1.764 11.642c-2.21 5.248-5.292 14.817-5.292 14.817z" transform="translate(-550.747 -371.374)"/>
                    </g>
                </g>
                <g id="그룹_3867" transform="translate(40.747 26.291)">
                    <g id="그룹_3866">
                        <path id="패스_1841" d="M601.06 386.939s5.909 8.731 6.968 13.67a4.133 4.133 0 0 1-2.117 4.586h-15.523v-3s9.342-1.006 10.231-2.117c1.411-1.764-2.029-6.791-1.676-9.613s2.117-3.526 2.117-3.526z" class="cls-7" transform="translate(-590.388 -386.939)"/>
                    </g>
                </g>
                <g id="그룹_3869" transform="translate(24.783 6.536)">
                    <g id="그룹_3868">
                        <path id="패스_1842" d="M548.5 328.554s-4.41-.794-8.82-6.615-6.35-9-6.35-9l-2.734.441a34.707 34.707 0 0 0 5.027 12.348c4.233 6.7 7.585 8.82 7.585 8.82z" class="cls-7" transform="translate(-530.596 -312.943)"/>
                    </g>
                </g>
                <g id="그룹_3871" transform="translate(44.451 19.562)">
                    <g id="그룹_3870">
                        <path id="패스_1843" d="M604.262 366.068l2.086-4.333 2.246.963-.642 4.654a3.386 3.386 0 0 1-2.407.16 2.745 2.745 0 0 1-1.283-1.444z" class="cls-3" transform="translate(-604.262 -361.735)"/>
                    </g>
                </g>
                <g id="그룹_3873" transform="translate(18.051 43.254)">
                    <g id="그룹_3872">
                        <path id="사각형_4031" d="M0 0H19.286V1.294H0z" class="cls-5"/>
                    </g>
                </g>
                <g id="그룹_3875" transform="translate(0 44.548)">
                    <g id="그룹_3874">
                        <path id="패스_1844" d="M525.2 457.965h-85.106l-2.323-2.646h89.607z" class="cls-2" transform="translate(-437.771 -455.319)"/>
                    </g>
                </g>
                <g id="그룹_3877" transform="translate(1.47 12.621)">
                    <g id="그룹_3876">
                        <rect id="사각형_4032" width="36.102" height="23.637" class="cls-2" rx="3.804"/>
                    </g>
                </g>
                <g id="그룹_3879" transform="translate(16.052 36.258)">
                    <g id="그룹_3878">
                        <path id="패스_1845" fill="#7cb4f7" d="M505.419 432.558h-7.526l.736-8.29h6.054z" transform="translate(-497.893 -424.267)"/>
                    </g>
                </g>
                <g id="그룹_3881" transform="translate(14.879 82.898)">
                    <g id="그룹_3880">
                        <path id="패스_1846" d="M502.667 601.486l-.172-2.486a1.139 1.139 0 0 1-1.234.677c-.9-.151-.785-.677-.785-.677a2.15 2.15 0 0 0-1.682.376c-.9.6-3.2.9-4.43 1.2a1.024 1.024 0 0 0-.849.9 1.883 1.883 0 0 0 .064.753h9.141z" class="cls-9" transform="translate(-493.5 -598.961)"/>
                    </g>
                </g>
                <g id="그룹_3883" transform="translate(38.449 82.898)">
                    <g id="그룹_3882">
                        <path id="패스_1847" d="M581.833 601.486l.172-2.484a1.139 1.139 0 0 0 1.234.677c.9-.151.785-.677.785-.677a2.15 2.15 0 0 1 1.682.376c.9.6 3.2.9 4.43 1.2a1.024 1.024 0 0 1 .849.9 1.882 1.882 0 0 1-.064.753h-9.141z" class="cls-9" transform="translate(-581.781 -598.961)"/>
                    </g>
                </g>
                <g id="그룹_3885" transform="translate(46.403 19.815)">
                    <g id="그룹_3884">
                        <path id="패스_1848" d="M611.577 362.681s-.061 1.425.728 1.729 1.7-.728 1.7-.728z" class="cls-10" transform="translate(-611.576 -362.681)"/>
                    </g>
                </g>
                <g id="그룹_3887" transform="translate(45.526 9.535)">
                    <g id="그룹_3886">
                        <path id="패스_1849" d="M608.306 329.956a9.9 9.9 0 0 1 .481-3.851 4.966 4.966 0 0 1 1.765-1.926l1.6 2.086z" class="cls-11" transform="translate(-608.288 -324.179)"/>
                    </g>
                </g>
                <g id="그룹_3889" transform="translate(45.807 11.678)">
                    <g id="그룹_3888">
                        <path id="패스_1850" d="M611.034 341.629c1.725.292 4.483-1.729 5.1-4.468s-.437-4.668-2.429-4.922c-2.5-.319-3.975 1.545-4.292 4s.4 5.184 1.621 5.39z" class="cls-3" transform="translate(-609.343 -332.204)"/>
                    </g>
                </g>
                <g id="그룹_3891" transform="translate(47.216 6.808)">
                    <g id="그룹_3890">
                        <path id="패스_1851" d="M616.155 313.962c.8.481 1.123 1.925 2.246 2.086s3.37.8 3.53 4.172c.15 3.149-1.845 4.052-1.845 4.052s-.321-3.41-2.568-4.613c-2.721-1.457-3.129-2.648-2.808-3.931a2.739 2.739 0 0 1 1.445-1.766z" class="cls-11" transform="translate(-614.618 -313.962)"/>
                    </g>
                </g>
                <g id="그룹_3893" transform="translate(45.219 13.56)">
                    <g id="그룹_3892">
                        <path id="패스_1852" d="M608.426 339.481s-1-.562-1.2.08a1.677 1.677 0 0 0 .58 1.842z" class="cls-3" transform="translate(-607.139 -339.254)"/>
                    </g>
                </g>
                <g id="그룹_3895" transform="translate(51.669 16.556)">
                    <g id="그룹_3894">
                        <path id="패스_1853" d="M632.073 350.473s1.246.3.936.9a1.677 1.677 0 0 1-1.71.9z" class="cls-3" transform="translate(-631.299 -350.473)"/>
                    </g>
                </g>
                <g id="그룹_3897" transform="translate(47.709 14.592)">
                    <g id="그룹_3896">
                        <path id="패스_1854" d="M617.576 343.77c0-.01-.037-.267-.444-.457a.846.846 0 0 0-.607.031l-.06-.132a.978.978 0 0 1 .728-.03c.487.227.525.56.527.574z" class="cls-10" transform="translate(-616.466 -343.12)"/>
                    </g>
                </g>
                <g id="그룹_3899" transform="translate(50.105 15.775)">
                    <g id="그룹_3898">
                        <path id="패스_1855" d="M626.551 348.2c0-.01-.037-.267-.444-.457a.846.846 0 0 0-.607.031l-.06-.132a.979.979 0 0 1 .728-.03c.487.227.525.56.527.574z" class="cls-10" transform="translate(-625.441 -347.551)"/>
                    </g>
                </g>
                <g id="그룹_3901" transform="translate(48.215 16.324)">
                    <g id="그룹_3900">
                        <path id="패스_1856" d="M618.918 351.312l-.557-.244.764-1.464.129.067-.692 1.329.414.181z" class="cls-10" transform="translate(-618.362 -349.604)"/>
                    </g>
                </g>
                <g id="그룹_3903" transform="translate(47.427 18.585)">
                    <g id="그룹_3902">
                        <path id="패스_1857" d="M615.493 358.073a1.187 1.187 0 0 0 .657.409 3.9 3.9 0 0 0 .722.065s-.412.789-1.026.674c-.694-.129-.353-1.148-.353-1.148z" class="cls-12" transform="translate(-615.409 -358.073)"/>
                    </g>
                </g>
                <g id="그룹_3905" transform="translate(35.516 40.978)">
                    <g id="그룹_3904">
                        <path id="패스_1858" d="M576.106 442.348a5.89 5.89 0 0 1-1.274-.3 2.642 2.642 0 0 0-2.365.576 9.392 9.392 0 0 0-1.668 1.7h1.213s1.122-.789 1.668-.546a3.225 3.225 0 0 0 1.547.273c.485-.03.88-.061.88-.061z" class="cls-3" transform="translate(-570.798 -441.947)"/>
                    </g>
                </g>
                <g id="그룹_3907" transform="translate(40.782 35.88)">
                    <g id="그룹_3906">
                        <path id="패스_1859" d="M590.665 431.476h-.145v-3.708h.068c.047 0 4.752-.275 6.639-.455 1.947-.185 3.241-.457 3.674-1.237s-.422-3.146-.431-3.17l.136-.05c.036.1.887 2.452.422 3.29s-1.793 1.121-3.787 1.311c-1.765.168-5.987.417-6.577.451z" class="cls-12" transform="translate(-590.52 -422.853)"/>
                    </g>
                </g>
                <g id="그룹_3909" transform="translate(41.945 22.82)">
                    <g id="그룹_3908">
                        <path id="패스_1860" d="M596.783 377.739c-.087 0-.426-.083-1.265-1.119a2.8 2.8 0 0 1-.5-2.681l.134.055a2.657 2.657 0 0 0 .474 2.536c.848 1.048 1.15 1.065 1.153 1.065l.014.144z" class="cls-12" transform="translate(-594.875 -373.938)"/>
                    </g>
                </g>
                <g id="그룹_3911" transform="translate(46.523 26.146)">
                    <g id="그룹_3910">
                        <path id="패스_1861" d="M612.03 387.839l-.006-.145c.553-.02.891-.017 1.138-.015a5.13 5.13 0 0 0 1.458-.165 2.832 2.832 0 0 0 1.712-1.12l.123.077a2.933 2.933 0 0 1-1.806 1.185 5.254 5.254 0 0 1-1.49.168c-.244-.003-.58-.006-1.129.015z" class="cls-12" transform="translate(-612.024 -386.393)"/>
                    </g>
                </g>
                <g id="그룹_3913" transform="translate(43.906 27.082)">
                    <g id="그룹_3912">
                        <path id="패스_1862" d="M602.506 390.47a.285.285 0 1 1 .285-.285.285.285 0 0 1-.285.285zm0-.424a.14.14 0 1 0 .14.14.14.14 0 0 0-.14-.141z" class="cls-12" transform="translate(-602.221 -389.9)"/>
                    </g>
                </g>
                <g id="그룹_3915" transform="translate(45.392 27.537)">
                    <g id="그룹_3914">
                        <path id="패스_1863" d="M608.072 392.174a.285.285 0 1 1 .285-.285.285.285 0 0 1-.285.285zm0-.424a.14.14 0 1 0 .14.14.14.14 0 0 0-.14-.141z" class="cls-12" transform="translate(-607.787 -391.604)"/>
                    </g>
                </g>
                <g id="그룹_3917" transform="translate(45.422 27.986)">
                    <g id="그룹_3916">
                        <path id="패스_1864" d="M608.045 395.67h-.145a1.881 1.881 0 0 1 .443-1.14c.378-.432-.236-1.141-.242-1.148l.109-.1c.029.033.7.812.243 1.339a1.757 1.757 0 0 0-.408 1.049z" class="cls-12" transform="translate(-607.9 -393.287)"/>
                    </g>
                </g>
                <g id="그룹_3919" transform="translate(43.964 27.33)">
                    <g id="그룹_3918">
                        <path id="패스_1865" d="M602.684 393.382a6.107 6.107 0 0 0-.179-1.435 1.469 1.469 0 0 1 .1-1.12l.125.075a1.346 1.346 0 0 0-.084 1 6.132 6.132 0 0 1 .185 1.477z" class="cls-12" transform="translate(-602.439 -390.827)"/>
                    </g>
                </g>
            </g>
            <g id="그룹_3986" transform="translate(495.339 259.34)">
                <g id="그룹_3922" transform="translate(18.892 22.631)">
                    <g id="그룹_3921">
                        <path id="패스_1866" d="M724.154 344.6s4.966 14.086 7.675 12.429-2.749-12.929-2.749-12.929z" class="cls-13" transform="translate(-724.154 -344.104)"/>
                    </g>
                </g>
                <g id="그룹_3924" transform="translate(19.859 16.631)">
                    <g id="그룹_3923">
                        <path id="패스_1867" d="M727.774 321.631s1.481.594 3.254 3.548l1.772 2.954-3.151 2.757z" class="cls-14" transform="translate(-727.774 -321.631)"/>
                    </g>
                </g>
                <g id="그룹_3926" transform="translate(13.464 87.324)">
                    <g id="그룹_3925">
                        <path id="패스_1868" d="M704.31 589.932l-.485-3.458 2.608-.061.182 3.822-1.334.667z" class="cls-3" transform="translate(-703.824 -586.414)"/>
                    </g>
                </g>
                <g id="그룹_3928" transform="translate(8.841 83.313)">
                    <g id="그룹_3927">
                        <path id="패스_1869" d="M686.776 573.715l2.606-2.324 1.5 2.136-3.082 2.273-1.3-.739z" class="cls-3" transform="translate(-686.508 -571.391)"/>
                    </g>
                </g>
                <g id="그룹_3930" transform="translate(8.522 43.376)">
                    <g id="그룹_3929">
                        <path id="패스_1870" d="M685.693 421.805a102.084 102.084 0 0 0-.18 15.616c.538 9.154 3.589 30.03 3.589 30.03l5.7-.3-1.573-45.164z" class="cls-15" transform="translate(-685.313 -421.805)"/>
                    </g>
                </g>
                <g id="그룹_3932" transform="translate(10.431 43.376)">
                    <g id="그룹_3931">
                        <path id="패스_1871" d="M692.464 462.417l3.518 4.731s12.91-15.188 13.807-21.47-3.59-18.847-3.949-21.36l-.359-2.513-8.8.359s5.923 20.822 5.205 23.155c-.958 3.131-9.422 17.098-9.422 17.098z" class="cls-15" transform="translate(-692.464 -421.805)"/>
                    </g>
                </g>
                <g id="그룹_3934" transform="translate(6.037 14.935)">
                    <g id="그룹_3933">
                        <path id="패스_1872" d="M677.917 344.744s.2-3.939 0-7.68-1.378-9.846-1.772-12.6 0-6.5 1.772-7.877 11.028-2.56 12.6 1.378.985 8.468 2.166 15.361 2.166 10.831 2.166 10.831a29.078 29.078 0 0 1-8.862 1.182 51.291 51.291 0 0 1-8.07-.595z" class="cls-5" transform="translate(-676.005 -315.278)"/>
                    </g>
                </g>
                <g id="그룹_3936" transform="translate(0 23.99)">
                    <g id="그룹_3935">
                        <path id="패스_1873" d="M656.2 349.2s-4.9 14.109-1.75 14.5 5.908-11.815 5.908-11.815z" class="cls-13" transform="translate(-653.394 -349.195)"/>
                    </g>
                </g>
                <g id="그룹_3941" transform="translate(7.739 26.144)">
                    <g id="그룹_3938" transform="translate(0.546)">
                        <g id="그룹_3937">
                            <path id="패스_1874" fill="#8abcf7" d="M684.424 357.263l1.843 7.436 3.721-.076-1.795-7.359z" transform="translate(-684.424 -357.263)"/>
                        </g>
                    </g>
                    <g id="그룹_3940">
                        <g id="그룹_3939">
                            <path id="패스_1875" fill="#e1edfd" d="M682.38 357.263l1.843 7.436 3.721-.076-1.795-7.359z" transform="translate(-682.38 -357.263)"/>
                        </g>
                    </g>
                </g>
                <g id="그룹_3943" transform="translate(13.659 90.479)">
                    <g id="그룹_3942">
                        <path id="패스_1876" d="M704.608 600.8l.175-2.528a1.159 1.159 0 0 0 1.255.689 1.5 1.5 0 0 0 1.163-.689s.435-.23 1.348.383 3.253.919 4.508 1.225a1.043 1.043 0 0 1 .864.919 1.917 1.917 0 0 1-.065.766h-9.3z" class="cls-18" transform="translate(-704.555 -598.229)"/>
                    </g>
                </g>
                <g id="그룹_3945" transform="translate(7.22 84.663)">
                    <g id="그룹_3944">
                        <path id="패스_1877" d="M681.089 577.781l2.154-1.334a1.289 1.289 0 0 0 1.382 1.85s.471.332.507 1.431 1.154 3.177 1.638 4.375a1.042 1.042 0 0 1-.242 1.238 1.916 1.916 0 0 1-.66.395l-5.433-7.55z" class="cls-18" transform="translate(-680.436 -576.447)"/>
                    </g>
                </g>
                <g id="그룹_3947" transform="translate(1.844 16.24)">
                    <g id="그룹_3946">
                        <path id="패스_1878" d="M666.406 320.167s-1.969.394-3.938 3.742c-1.028 1.747-2.166 3.938-2.166 3.938l5.12 2.757a12.056 12.056 0 0 0 1.182-5.317c-.004-3.151-.198-5.12-.198-5.12z" class="cls-14" transform="translate(-660.301 -320.167)"/>
                    </g>
                </g>
                <g id="그룹_3949" transform="translate(0.387 28.208)">
                    <g id="그룹_3948">
                        <path id="패스_1879" d="M654.929 374.778c1.077 1.615 3.59.718 5.744-1.616s1.974-3.949 3.59-3.231a2.451 2.451 0 0 0 3.321-1.346 2.768 2.768 0 0 0-.18-2.333 5.824 5.824 0 0 1-2.423.987c-2.333.179-2.244-2.244-2.244-2.244s-.359.359-.359 1.795-.808 1.256-2.423 1.885c-1.578.614-2.469-.044-3.949 1.436-1.616 1.615-1.077 4.667-1.077 4.667z" class="cls-3" transform="translate(-654.842 -364.995)"/>
                    </g>
                </g>
                <g id="그룹_3951" transform="translate(24.58 21.351)">
                    <g id="그룹_3950">
                        <path id="패스_1880" d="M757.155 342.3a2.148 2.148 0 0 0-.322-1.424c-.568-.673-1.369.168-1.688.015s-.2-1.844-.585-1.541-.306 1.6-.464 2.155a1.575 1.575 0 0 1-.647.98 14.892 14.892 0 0 0-1.492 1.442c-2.4 2.694-7.99 6.8-6.122 9.146 1.4 1.758 4-.839 5.853-3.671 1.525-2.332 2.38-4.846 3.051-5.026.967-.259 1.694-.279 2.244-.808.235-.228.169-.913.172-1.268z" class="cls-3" transform="translate(-745.46 -339.311)"/>
                    </g>
                </g>
                <g id="그룹_3953" transform="translate(34.287 23.116)">
                    <g id="그룹_3952">
                        <path id="패스_1881" d="M782.7 348.337a.41.41 0 0 1-.287-.084.157.157 0 0 1-.046-.118.574.574 0 0 1 .161-.3.486.486 0 0 1-.428-.224.359.359 0 0 1 .122-.415.327.327 0 0 1-.241-.183.318.318 0 0 1 .089-.383.648.648 0 0 1 .056-.049.522.522 0 0 1-.3-.265c-.063-.191.127-.334.249-.388l.059.132s-.208.1-.17.21.264.2.339.222l.182.05-.168.085s-.293.15-.207.321.318.088.327.085l.063.131s-.357.211-.271.383c.094.187.46.141.464.14l.232-.033-.172.158c-.1.091-.239.254-.24.332.065.074.3.055.444.023l.032.141a1.387 1.387 0 0 1-.289.029z" class="cls-10" transform="translate(-781.815 -345.922)"/>
                    </g>
                </g>
                <g id="그룹_3981" transform="translate(9.278)">
                    <g id="그룹_3955" transform="translate(2.812 10.832)">
                        <g id="그룹_3954">
                            <path id="패스_1882" d="M698.676 304.82l.685-4.91h2.626l.586 4.759a1.316 1.316 0 0 1-1.37 1.884 2.528 2.528 0 0 1-2.527-1.733z" class="cls-3" transform="translate(-698.676 -299.91)"/>
                        </g>
                    </g>
                    <g id="그룹_3957" transform="translate(3.497 11.631)">
                        <g id="그룹_3956">
                            <path id="패스_1883" d="M701.242 303.018s.343 1.6 1.37 1.6 1.37-1.713 1.37-1.713z" class="cls-10" transform="translate(-701.242 -302.904)"/>
                        </g>
                    </g>
                    <g id="그룹_3959" transform="translate(7.084 2.978)">
                        <g id="그룹_3958">
                            <path id="패스_1884" fill="#fabd48" d="M716.428 270.7s.6 2.826-.514 4.111c-.731.844-.856-1.97-1.2-3.425s1.714-.686 1.714-.686z" transform="translate(-714.677 -270.492)"/>
                        </g>
                    </g>
                    <g id="그룹_3961" transform="translate(1.386 1.354)">
                        <g id="그룹_3960">
                            <path id="패스_1885" d="M696.827 275.375c1.261 0 2.737-1.49 3.19-3.318s.555-7.652-3.213-7.644-3.868 6.517-3.066 8.113 1.833 2.851 3.089 2.849z" class="cls-3" transform="translate(-693.334 -264.413)"/>
                        </g>
                    </g>
                    <g id="그룹_3974" transform="translate(2.46 5.541)">
                        <g id="그룹_3963" transform="translate(2.278 1.437)">
                            <g id="그룹_3962">
                                <path id="패스_1886" d="M706.617 287.69h-.729v-2.214h.145v2.069h.584z" class="cls-10" transform="translate(-705.888 -285.476)"/>
                            </g>
                        </g>
                        <g id="그룹_3965" transform="translate(0.765 1.022)">
                            <g id="그룹_3964">
                                <path id="패스_1887" d="M700.465 284.409a.244.244 0 1 1 .244-.244.244.244 0 0 1-.244.244zm0-.343a.1.1 0 1 0 .1.1.1.1 0 0 0-.1-.1z" class="cls-10" transform="translate(-700.221 -283.921)"/>
                            </g>
                        </g>
                        <g id="그룹_3967" transform="translate(3.363 1.022)">
                            <g id="그룹_3966">
                                <path id="패스_1888" d="M710.2 284.409a.244.244 0 1 1 .244-.244.244.244 0 0 1-.244.244zm0-.343a.1.1 0 1 0 .1.1.1.1 0 0 0-.1-.1z" class="cls-10" transform="translate(-709.951 -283.921)"/>
                            </g>
                        </g>
                        <g id="그룹_3969" transform="translate(0 0.069)">
                            <g id="그룹_3968">
                                <path id="패스_1889" d="M697.433 280.84l-.077-.123a2.466 2.466 0 0 1 .8-.31c.477-.073.477-.073.492.005.005.026 0 .074-.078.094v-.009c-.013 0-.075 0-.39.053a2.356 2.356 0 0 0-.747.29z" class="cls-10" transform="translate(-697.356 -280.353)"/>
                            </g>
                        </g>
                        <g id="그룹_3971" transform="translate(3.432)">
                            <g id="그룹_3970">
                                <path id="패스_1890" d="M711.356 280.575a1.133 1.133 0 0 0-.427-.262 1.264 1.264 0 0 0-.683-.047l-.034-.141a1.394 1.394 0 0 1 .773.054 1.186 1.186 0 0 1 .487.309z" class="cls-10" transform="translate(-710.212 -280.093)"/>
                            </g>
                        </g>
                        <g id="그룹_3973" transform="translate(1.778 4.68)">
                            <g id="그룹_3972">
                                <path id="패스_1891" d="M704.86 298.135h-.045a1.068 1.068 0 0 1-.8-.395l.118-.084a.921.921 0 0 0 .689.334.9.9 0 0 0 .733-.368l.121.081a1.035 1.035 0 0 1-.816.432z" class="cls-10" transform="translate(-704.014 -297.621)"/>
                            </g>
                        </g>
                    </g>
                    <g id="그룹_3976">
                        <g id="그룹_3975">
                            <path id="패스_1892" d="M695.795 263.027c.771-.343 1.541-.053 1.541-1.884 0-2.056-2.74-2.056-4.368-1.456-1.527.563-1.541-.343-2.826.428-1.2.722-.942 1.2-1.37 1.8a2.006 2.006 0 0 0-.343 2.483 2.988 2.988 0 0 0 1.2 1.456s.428-3 1.97-2.912 3.425.427 4.196.085z" class="cls-18" transform="translate(-688.143 -259.34)"/>
                        </g>
                    </g>
                    <g id="그룹_3978" transform="translate(0.452 5.892)">
                        <g id="그룹_3977">
                            <path id="패스_1893" d="M690.933 281.582s-.88-.455-1.028.114a2.2 2.2 0 0 0 1.063 2.369z" class="cls-3" transform="translate(-689.836 -281.41)"/>
                        </g>
                    </g>
                    <g id="그룹_3980" transform="translate(7.988 5.807)">
                        <g id="그룹_3979">
                            <path id="패스_1894" d="M718.1 281.261s.88-.455 1.028.114a2.2 2.2 0 0 1-1.063 2.369z" class="cls-3" transform="translate(-718.063 -281.089)"/>
                        </g>
                    </g>
                </g>
                <g id="그룹_3983" transform="translate(10.369 71.535)">
                    <g id="그룹_3982">
                        <path id="패스_1895" d="M692.355 539.765l-.125-.074c.054-.091 5.406-9.143 7.065-12.416l.13.065c-1.662 3.278-7.016 12.334-7.07 12.425z" class="cls-12" transform="translate(-692.23 -527.275)"/>
                    </g>
                </g>
                <g id="그룹_3985" transform="translate(8.625 45.353)">
                    <g id="그룹_3984" transform="translate(0 0)">
                        <path id="사각형_4033" d="M0 0H3.869V0.145H0z" class="cls-12" transform="translate(0 2.548) rotate(-41.2)"/>
                    </g>
                </g>
            </g>
        </g>
    </g>
</svg>
