<svg xmlns="http://www.w3.org/2000/svg" id="icon_bmp" width="18" height="18" viewBox="0 0 18 18">
    <defs>
        <style>
            .cls-3{fill:#fff}
        </style>
    </defs>
    <path id="사각형_3735" fill="#f95b15" d="M0 0H18V18H0z" transform="translate(0 0)"/>
    <g id="그룹_3761" transform="translate(2.617 6.448)" style="isolation:isolate">
        <path id="패스_1825" d="M-1347.958 4725.274h1.82c1.078 0 1.939.27 1.939 1.209a1.134 1.134 0 0 1-.679 1.057v.026a1.124 1.124 0 0 1 .924 1.149c0 1-.9 1.445-2.037 1.445h-1.967zm1.771 1.938c.532 0 .77-.216.77-.552s-.245-.493-.77-.493h-.518v1.044zm.1 2.049c.6 0 .91-.2.91-.624 0-.4-.3-.559-.91-.559h-.623v1.182z" class="cls-3" transform="translate(1347.341 -4725.165)"/>
        <path id="패스_1826" d="M-1306.259 4725.274h1.351l.826 2.108c.1.283.189.591.287.893h.035c.1-.3.189-.61.287-.893l.8-2.108h1.358v4.887h-1.141v-1.675a15.291 15.291 0 0 1 .161-1.695h-.028l-.434 1.169-.7 1.787h-.686l-.707-1.787-.42-1.169h-.028a15.262 15.262 0 0 1 .161 1.695v1.675h-1.12z" class="cls-3" transform="translate(1310.181 -4725.165)"/>
        <path id="패스_1827" d="M-1253.639 4725.274h1.827c1.148 0 2.093.381 2.093 1.589 0 1.163-.959 1.675-2.058 1.675h-.609v1.623h-1.253zm1.8 2.338c.609 0 .9-.269.9-.749s-.336-.663-.938-.663h-.511v1.412z" class="cls-3" transform="translate(1263.102 -4725.165)"/>
    </g>
</svg>
