<svg xmlns="http://www.w3.org/2000/svg" width="18" height="18" viewBox="0 0 18 18">
    <path fill="#24589b" d="M0 0H18V18H0z" transform="translate(0 0)"/>
    <g>
        <path fill="#fff" d="M-2625.469 4711.418h1.793l.46 3.323.294 2.313h.039c.137-.774.284-1.558.431-2.312l.745-3.323h1.47l.764 3.323c.147.745.274 1.528.421 2.313h.049c.088-.784.186-1.558.274-2.312l.471-3.323h1.666l-1.264 7.292h-2.205l-.657-3.175c-.117-.559-.215-1.146-.284-1.7h-.049c-.088.549-.177 1.137-.284 1.7l-.637 3.175h-2.166z" transform="translate(4.556 5.347) translate(2625.469 -4711.418)"/>
    </g>
</svg>
