<svg xmlns="http://www.w3.org/2000/svg" width="114" height="32" viewBox="0 0 114 32">
    <defs>
        <style>
            .cls-2{fill:#030303}
        </style>
    </defs>
    <g id="snb_logo" transform="translate(-4207 -5410)">
        <g id="그룹_350" transform="translate(4068.3 5354.43)">
            <g id="그룹_2" transform="translate(174.7 60.57)">
                <g id="그룹_1" transform="translate(0 0)">
                    <path id="패스_2" d="M311.537 82.475v11.389A1.519 1.519 0 0 1 309.9 95.4a1.486 1.486 0 0 1-1.612-1.533V82.475h-4.915v11.749c0 3.517 2.535 5.974 6.509 5.974s6.562-2.457 6.562-5.974V82.475z" class="cls-2" transform="translate(-274.519 -77.562)"/>
                    <path id="패스_3" d="M196.606 82.475v17.588h4.91V82.475z" class="cls-2" transform="translate(-191.693 -77.562)"/>
                    <path id="패스_4" d="M174.7 60.57v4.912h4.913V60.57z" class="cls-2" transform="translate(-174.7 -60.57)"/>
                    <path id="패스_5" d="M242.512 94.267a.651.651 0 0 1-.387 1.215h-5.007v4.581h6.092c5.661 0 6.239-6.179 3.329-8.649l-3.7-3.144c-.612-.517-.369-1.215.357-1.215h4.547v-4.58h-5.6c-5.653 0-6.228 6.178-3.325 8.65z" class="cls-2" transform="translate(-223.109 -77.562)"/>
                </g>
            </g>
        </g>
    </g>
</svg>
